<?xml version="1.0" encoding="UTF-8"?>
<!DOCTYPE svg PUBLIC "-//W3C//DTD SVG 1.1//EN" "http://www.w3.org/Graphics/SVG/1.1/DTD/svg11.dtd">
<!-- Creator: CorelDRAW -->
<svg xmlns="http://www.w3.org/2000/svg" xml:space="preserve" width="1249.83mm" height="316.455mm" version="1.1" style="shape-rendering:geometricPrecision; text-rendering:geometricPrecision; image-rendering:optimizeQuality; fill-rule:evenodd; clip-rule:evenodd"
viewBox="0 0 8947.38 2265.46"
 xmlns:xlink="http://www.w3.org/1999/xlink"
 xmlns:xodm="http://www.corel.com/coreldraw/odm/2003">
 <defs>
  <style type="text/css">
   <![CDATA[
    .fil0 {fill:url(#id0)}
   ]]>
  </style>
  <linearGradient id="id0" gradientUnits="userSpaceOnUse" x1="4609.78" y1="-89.53" x2="4337.6" y2="2354.99">
   <stop offset="0" style="stop-opacity:1; stop-color:#0052FF"/>
   <stop offset="0.458824" style="stop-opacity:1; stop-color:#0030AE"/>
   <stop offset="1" style="stop-opacity:1; stop-color:#000E5C"/>
  </linearGradient>
 </defs>
 <g id="Layer_x0020_1">
  <metadata id="CorelCorpID_0Corel-Layer"/>
  <path class="fil0" d="M2370.48 31.81l-941.82 2227.3 311.83 0.01 941.83 -2227.31 -311.83 0zm5016.71 2018.77c0,-17.16 13.99,-33.06 43.23,-33.06 34.97,0 45.77,22.25 47.04,48.32l57.22 0c0,-51.49 -33.06,-99.17 -105.53,-99.17 -65.48,0 -98.54,39.42 -98.54,87.1 0,98.54 156.39,73.11 156.39,126.51 0,12.71 -8.9,34.33 -48.32,34.33 -33.06,0 -55.31,-15.26 -57.85,-49.59l-57.85 0c1.91,64.21 48.95,100.45 117.61,100.45 80.1,0 103.62,-49.59 103.62,-85.19 0,-92.18 -157.03,-76.92 -157.03,-129.69zm-376.99 -77.56l0 286.08 55.94 0 0 -149.4c0,-61.67 30.52,-92.18 75.65,-92.18 45.14,0 74.38,30.52 74.38,92.18l0 149.4 55.94 0 0 -164.66c0,-80.1 -55.94,-127.78 -120.15,-127.78 -36.87,0 -65.48,15.89 -85.82,41.32l0 -34.97 -55.94 0zm-196.44 292.44c88.37,0 145.58,-58.49 145.58,-149.4 0,-90.91 -57.22,-149.4 -145.58,-149.4 -88.37,0 -145.58,58.49 -145.58,149.4 0,90.91 57.22,149.4 145.58,149.4zm-88.37 -149.4c0,-57.22 33.69,-98.54 88.37,-98.54 55.31,0 88.37,41.32 88.37,98.54 0,56.58 -33.06,98.54 -88.37,98.54 -54.67,0 -88.37,-41.96 -88.37,-98.54zm-164.66 -143.04l0 286.08 55.94 0 0 -286.08 -55.94 0zm-10.17 -94.72c0,21.61 15.89,38.78 38.14,38.78 22.89,0 38.78,-17.16 38.78,-38.78 0,-20.98 -15.89,-38.14 -38.78,-38.14 -22.25,0 -38.14,17.16 -38.14,38.14zm-167.2 4.45l0 90.27 -36.24 0 0 49.59 36.24 0 0 160.84c0,49.59 21.61,75.65 73.75,75.65l57.85 0 0 -49.59 -42.59 0c-27.97,0 -33.06,-15.26 -33.06,-33.69l0 -153.21 69.3 0 0 -49.59 -69.3 0 0 -90.27 -55.94 0zm-134.78 90.27l0 36.87c-20.98,-27.97 -51.49,-43.23 -90.91,-43.23 -76.29,0 -138.59,58.49 -138.59,149.4 0,90.27 62.3,149.4 138.59,149.4 39.42,0 69.93,-15.89 90.91,-43.23l0 36.87 55.95 0 0 -286.08 -55.95 0zm-172.28 143.04c0,-57.22 33.69,-98.54 88.37,-98.54 55.31,0 88.37,41.32 88.37,98.54 0,56.58 -33.06,98.54 -88.37,98.54 -54.67,0 -88.37,-41.96 -88.37,-98.54zm-128.42 -143.04l-87.1 221.24 -87.73 -221.24 -62.94 0 120.79 286.08 57.85 0 121.42 -286.08 -62.3 0zm-392.25 292.44c88.37,0 145.58,-58.49 145.58,-149.4 0,-90.91 -57.22,-149.4 -145.58,-149.4 -88.37,0 -145.58,58.49 -145.58,149.4 0,90.91 57.22,149.4 145.58,149.4zm-88.37 -149.4c0,-57.22 33.69,-98.54 88.37,-98.54 55.31,0 88.37,41.32 88.37,98.54 0,56.58 -33.06,98.54 -88.37,98.54 -54.67,0 -88.37,-41.96 -88.37,-98.54zm-368.09 -143.04l0 286.08 55.94 0 0 -149.4c0,-61.67 30.52,-92.18 75.65,-92.18 45.14,0 74.38,30.52 74.38,92.18l0 149.4 55.94 0 0 -164.66c0,-80.1 -55.94,-127.78 -120.15,-127.78 -36.87,0 -65.48,15.89 -85.82,41.32l0 -34.97 -55.94 0zm-321.05 0l0 286.08 55.94 0 0 -149.4c0,-61.67 30.51,-92.18 75.65,-92.18 45.14,0 74.38,30.52 74.38,92.18l0 149.4 55.94 0 0 -164.66c0,-80.1 -55.94,-127.78 -120.15,-127.78 -36.87,0 -65.48,15.89 -85.82,41.32l0 -34.97 -55.94 0zm-117.61 0l0 286.08 55.94 0 0 -286.08 -55.94 0zm-10.17 -94.72c0,21.61 15.89,38.78 38.14,38.78 22.89,0 38.78,-17.16 38.78,-38.78 0,-20.98 -15.89,-38.14 -38.78,-38.14 -22.25,0 -38.14,17.16 -38.14,38.14zm3985.21 -1846.49l-941.84 2227.3 311.84 0.01 941.82 -2227.31 -311.82 0zm-674.17 0l-404.59 956.8 311.78 0.11 404.61 -956.91 -311.81 0zm-7640.04 388.19c0,-85.91 70,-165.46 216.37,-165.46 175,0 229.09,111.37 235.46,241.82l286.36 0c0,-257.73 -165.46,-496.37 -528.18,-496.37 -327.74,0 -493.19,197.27 -493.19,435.92 0,493.18 782.73,365.91 782.73,633.19 0,63.64 -44.54,171.81 -241.81,171.81 -165.46,0 -276.83,-76.36 -289.56,-248.18l-289.54 0c9.54,321.37 245,502.72 588.64,502.72 400.91,0 518.65,-248.17 518.65,-426.36 0,-461.36 -785.93,-385.01 -785.93,-649.1zm3554.14 -388.19l0 184.55c-104.99,-140 -257.72,-216.36 -455,-216.36 -381.82,0 -693.64,292.73 -693.64,747.74 0,451.82 311.82,747.73 693.64,747.73 197.28,0 350.01,-79.54 455,-216.36l0 184.55 280.01 0 0 -1431.84 -280.01 0zm-862.28 715.92c0,-286.37 168.64,-493.19 442.28,-493.19 276.82,0 442.28,206.82 442.28,493.19 0,283.19 -165.46,493.18 -442.28,493.18 -273.64,0 -442.28,-209.99 -442.28,-493.18zm1447.76 -715.92l0 1431.84 280 0 0 -747.74c0,-308.65 152.73,-461.38 378.64,-461.38 225.91,0 372.27,152.73 372.27,461.38l0 747.74 280.01 0 0 -824.1c0,-400.91 -280.01,-639.55 -601.37,-639.55 -184.54,0 -327.73,79.55 -429.56,206.82l0 -175.01 -280 0zm2936.84 976.84l-305.45 0c-73.18,133.64 -178.19,232.27 -359.55,232.27 -276.81,0 -429.54,-209.99 -429.54,-493.18 0,-286.37 152.73,-493.19 420,-493.19 184.55,0 315.01,111.37 369.1,264.1l305.45 0c-79.55,-315 -324.54,-518.64 -674.55,-518.64 -439.09,0 -706.38,292.73 -706.38,747.74 0,451.82 267.28,747.73 715.92,747.73 343.65,0 572.74,-190.91 665.01,-486.81zm-5701.51 -976.84l-404.58 956.8 311.78 0.11 404.64 -956.91 -311.83 0z"/>
 </g>
</svg>
