<svg xmlns="http://www.w3.org/2000/svg" viewBox="0 0 128 128" width="128" height="128">
  <path fill="#5382a1" d="M46.8 96.6s-4.7 1.3-9.9 1.5c-6.7.2-11.7-1.1-11.7-1.1s-1.8 2.2 4.4 3.7c6.6 1.7 18.2 1.6 24.8.4 6.1-1 7.7-3.7 7.7-3.7s-3.7-1.5-15.3-.8z"/>
  <path fill="#5382a1" d="M44.5 76.5s-14.8 2.8-21.7 3.3c-7.9.6-14-1.2-14-1.2s-.5 2.1 6 3.7c7 1.7 22.8 1.8 32 .2 8.3-1.4 10.3-4.5 10.3-4.5s-4.3-1.8-12.6-1.5z"/>
  <path fill="#e76f00" d="M60.1 53.6s6 6.9-4.7 16.5c-8.7 7.8-19.8 8.1-27.1 8-4.4 0-14.9-.7-14.9-.7s-1.8 2.4 4.5 3.8c7.4 1.7 20.3 1.8 29.7.2 9.5-1.6 19.3-6.6 19.3-14 0-9.2-6.8-13.8-6.8-13.8z"/>
  <path fill="#5382a1" d="M78.6 86.8c1.3.8.3 2.1-.8 2.7-4.2 2.3-16.7 5.1-32.9 5.4-16.2.3-27.5-1.9-31.8-3.4-1.7-.6-1.8-1.7-.8-2.3 1.9-1.2 5.5-1 5.5-1s-3.7 1.8 2 3c6 1.3 17 2.6 27.6 2.4 11-.2 20.3-1.7 24.8-2.9 4.3-1.1 6.4-3.9 6.4-3.9s-1.4.1 0 0z"/>
  <path fill="#e76f00" d="M63.8 35.8c3.2 3.7-1.6 10.4-1.6 10.4s7.2-3.7 4.2-8.5c-3.1-4.8-10.4-7.2-16.8-13 0 0 10.9 3.6 14.2 11.1z"/>
  <path fill="#5382a1" d="M94.6 97.4s4.2 2.3-4.6 4.1c-10.5 2.1-34.9 3.3-49.8 3.5-15.6.2-30.8-.9-36.8-2.9-2.3-.8 4.7-2.6 10-3 5.4-.4 10.7 0 10.7 0s-7.1-.4-12.7.7c-5.8 1.1-7.7 2.6-7.7 2.6s2.5 1.8 10 2.8c9.5 1.3 23.3 2.2 36.3 1.9 14.8-.3 28.5-1.6 35.8-3.6 7.4-2.1 8.8-6.1 8.8-6.1z"/>
  <path fill="#5382a1" d="M47.7 115.5c16.2.2 31.7-1.3 39.8-3.7 2.8-.8 5.7-2.6 5.7-2.6s-2.7 1.4-6.6 2.3c-10.4 2.4-26.6 3.6-40.4 3.4-13.6-.2-24.8-1.5-29.2-2.8-1.8-.5-3.3-1.7-3.3-1.7s1.3.9 4.3 1.7c5.1 1.4 13.5 3.2 29.7 3.4z"/>
  <path fill="#e76f00" d="M84.4 75.9c7.6-8.8 3.9-15.4 3.9-15.4s-.3 3.6-4.6 7.6c-5.8 5.4-11.4 6.7-17 11 0 0 10.1-5.1 17.7-3.2z"/>
  <path fill="#e76f00" d="M46.1 0C32 15 50.1 27.2 50.1 27.2S36.3 15.6 46.1 0z"/>
  <path fill="#5382a1" d="M74.9 66.8s15.3-2.6 15.8-14c.4-10-8.9-13.7-8.9-13.7s2.5 1.7 3.2 5.6c.9 5.3-2.1 9.4-10.1 10.9-6.3 1.2-11.3.8-11.3.8s5.7.5 9.7.2c4.4-.3 10-1.4 12.1-4.7 1.4-2.2 1.4-4.8 1.4-4.8s5.2 3 5 8.7c-.2 6.5-6.9 11-6.9 11z"/>
</svg>
