<?xml version="1.0" encoding="UTF-8"?>
<svg version="1.1" xmlns="http://www.w3.org/2000/svg" width="48" height="48">
<path d="M0 0 C2.31 0 4.62 0 7 0 C7 0.33 7 0.66 7 1 C12.94 1 18.88 1 25 1 C24.67 1.99 24.34 2.98 24 4 C18.63636982 6.12310361 13.71642118 6.23332331 8 6 C8 6.66 8 7.32 8 8 C12.62 7.67 17.24 7.34 22 7 C22 7.66 22 8.32 22 9 C17.97123809 10.91233914 14.7526811 11.24319212 10.3125 11.1875 C8.60513672 11.17783203 8.60513672 11.17783203 6.86328125 11.16796875 C4 11 4 11 2 10 C2.33 8.68 2.66 7.36 3 6 C1.68 5.01 0.36 4.02 -1 3 C-0.67 2.01 -0.34 1.02 0 0 Z " fill="#000000" transform="translate(10,32)"/>
<path d="M0 0 C1.32 0 2.64 0 4 0 C4 0.99 4 1.98 4 3 C9.32397237 4.09970577 14.46663028 4.14910863 19.875 4.125 C20.73480469 4.12886719 21.59460938 4.13273437 22.48046875 4.13671875 C27.74346615 4.12873241 32.79196324 3.76126755 38 3 C35.71210022 6.43184967 34.38529894 6.78701064 30.46972656 7.63818359 C25.6172383 8.349076 20.77036744 8.32751646 15.875 8.3125 C14.28751953 8.33666992 14.28751953 8.33666992 12.66796875 8.36132812 C6.94302381 8.36491968 2.83932175 8.17318848 -2 5 C-1.125 1.125 -1.125 1.125 0 0 Z " fill="#000000" transform="translate(4,40)"/>
<path d="M0 0 C5.625 -0.25 5.625 -0.25 9 2 C11.1270431 2.27441372 11.1270431 2.27441372 13.44921875 2.1953125 C14.29677734 2.18886719 15.14433594 2.18242187 16.01757812 2.17578125 C16.89865234 2.15902344 17.77972656 2.14226563 18.6875 2.125 C19.58017578 2.11597656 20.47285156 2.10695313 21.39257812 2.09765625 C23.59532314 2.07409748 25.79752588 2.04120329 28 2 C28 2.66 28 3.32 28 4 C22.20966204 6.48157341 17.03566587 7.32333699 10.75 7.375 C10.06486328 7.38853516 9.37972656 7.40207031 8.67382812 7.41601562 C4.27789887 7.37741722 1.54465119 6.59666308 -2 4 C-1.34 2.68 -0.68 1.36 0 0 Z " fill="#000000" transform="translate(9,24)"/>
<path d="M0 0 C0.66 0.33 1.32 0.66 2 1 C1.68769025 5.16413007 0.65803827 7.70353622 -1.6875 11.0625 C-3.06232129 13.03652287 -3.06232129 13.03652287 -4 15 C-3.53712479 17.82632926 -3.53712479 17.82632926 -2 20 C-1.67 20.99 -1.34 21.98 -1 23 C-4.12720935 22.16607751 -6.47685312 21.45564406 -8.9375 19.3125 C-10.58916756 15.71769413 -10.14936206 13.76735342 -9 10 C-7.35681887 8.00441594 -5.61808536 6.29966708 -3.69140625 4.578125 C-1.77448717 2.91084637 -1.77448717 2.91084637 0 0 Z " fill="#000000" transform="translate(26,0)"/>
<path d="M0 0 C3.5 0.9375 3.5 0.9375 5.5 2.6875 C6.5 4.9375 6.5 4.9375 6.4375 7.5 C5.30515348 10.44410096 4.27352103 11.46916534 1.5 12.9375 C0.51 12.6075 -0.48 12.2775 -1.5 11.9375 C-1.005 11.36 -0.51 10.7825 0 10.1875 C1.86980013 7.83349371 1.86980013 7.83349371 1.5 3.9375 C-1.14 3.6075 -3.78 3.2775 -6.5 2.9375 C-4.48884774 -0.02007686 -3.67399752 -0.0656071 0 0 Z " fill="#000000" transform="translate(39.5,21.0625)"/>
<path d="M0 0 C0.66 0.33 1.32 0.66 2 1 C1.01 2.485 1.01 2.485 0 4 C0.28552357 5.89667109 0.28552357 5.89667109 1 8 C1.34578768 9.99788438 1.68143549 11.99759451 2 14 C0.02 14.99 0.02 14.99 -2 16 C-3.42500059 12.00999834 -4.40075776 8.19469571 -5 4 C-3.35 2.68 -1.7 1.36 0 0 Z " fill="#000000" transform="translate(29,9)"/>
</svg>
