<?xml version="1.0" standalone="no"?>
<!DOCTYPE svg PUBLIC "-//W3C//DTD SVG 20010904//EN"
 "http://www.w3.org/TR/2001/REC-SVG-20010904/DTD/svg10.dtd">
<svg version="1.0" xmlns="http://www.w3.org/2000/svg"
 viewBox="0 0 400 400"
 preserveAspectRatio="xMidYMid meet">

<g transform="translate(0.000000,400.000000) scale(0.100000,-0.100000)"
fill="#000000" stroke="none">
<path d="M1915 3694 c-226 -21 -346 -47 -513 -109 -155 -58 -361 -172 -345
-190 5 -4 3 -5 -3 -2 -27 15 -351 -271 -339 -300 2 -8 1 -12 -4 -9 -5 4 -31
-22 -59 -57 -55 -70 -74 -101 -67 -111 3 -3 2 -4 -2 -1 -15 12 -115 -177 -168
-319 -74 -196 -108 -385 -108 -601 0 -440 168 -852 478 -1172 77 -80 116 -114
125 -108 8 5 11 4 6 -3 -8 -14 122 -114 138 -105 6 3 8 3 4 -2 -14 -15 165
-121 184 -109 6 4 8 3 5 -3 -9 -14 129 -73 283 -121 260 -81 606 -87 880 -16
235 61 436 158 625 303 94 71 256 233 250 248 -2 8 -1 12 4 9 11 -7 92 95 153
194 167 272 251 570 251 890 0 395 -130 760 -380 1070 -83 103 -209 223 -224
214 -7 -4 -9 -3 -5 4 6 10 -56 63 -155 130 -138 93 -358 187 -554 236 -105 26
-368 49 -460 40z m217 -595 c159 -33 278 -97 389 -209 72 -72 95 -105 133
-181 103 -210 114 -417 34 -615 -42 -104 -111 -193 -286 -367 l-168 -168 -61
62 -62 63 182 186 c149 151 188 197 214 250 58 120 75 223 52 332 -51 251
-227 429 -470 474 -94 18 -189 9 -289 -27 -131 -48 -248 -156 -318 -295 -54
-106 -68 -274 -32 -393 23 -78 86 -184 103 -174 7 3 9 3 5 -2 -4 -4 24 -41 63
-80 39 -40 78 -83 86 -95 8 -12 21 -19 29 -16 8 3 13 0 11 -7 -1 -7 4 -11 11
-9 8 1 11 -2 7 -8 -8 -13 42 -63 55 -55 6 4 9 1 8 -7 -2 -7 2 -12 9 -11 7 2
10 -3 7 -10 -6 -17 41 -61 56 -52 6 4 9 1 8 -7 -2 -7 2 -12 9 -11 7 2 10 -3 7
-10 -6 -18 41 -61 57 -52 7 5 10 4 5 -3 -8 -14 60 -86 74 -77 6 4 9 1 8 -7 -2
-7 3 -12 10 -10 8 1 11 -2 7 -9 -8 -13 171 -191 213 -213 15 -7 43 -16 64 -20
37 -7 116 6 127 21 3 4 12 9 20 11 20 4 92 75 88 87 -2 5 2 16 9 23 19 19 27
93 15 139 -6 22 -22 57 -36 77 -29 43 -27 47 50 118 l51 47 37 -49 c57 -76 80
-157 75 -265 -3 -75 -9 -101 -35 -155 -39 -82 -107 -151 -190 -192 -115 -56
-274 -49 -388 17 -22 13 -121 106 -220 207 -99 100 -183 181 -187 180 -5 -1
-7 2 -5 7 1 5 -45 55 -103 113 -242 241 -293 300 -338 388 -61 122 -75 183
-76 325 0 132 17 209 76 332 26 55 158 238 158 220 0 -4 13 5 30 19 16 15 27
31 23 37 -3 6 -1 7 5 3 6 -3 35 9 64 27 64 41 151 76 233 93 76 15 218 17 287
3z m-757 -1375 c30 -31 55 -57 55 -59 0 -2 -13 -29 -30 -60 -36 -68 -40 -138
-11 -201 23 -51 77 -107 94 -98 6 4 9 4 5 -1 -14 -15 47 -37 107 -38 60 0 108
16 148 51 17 15 22 12 80 -47 l62 -62 -35 -31 c-125 -109 -335 -118 -480 -20
-65 44 -122 117 -151 192 -27 70 -30 212 -5 280 18 49 83 150 97 150 5 0 33
-25 64 -56z"/>
</g>
</svg>
